# xmcd
#
# Track frame offsets: 
#        182
#        13232
#        23882
#        36707
#        46607
#        56357
#        69332
#        84932
#        98657
#        108557
#        122882
#        135032
#        147557
#        158807
#        168782
#        179357
#        190232
#        201107
#        214907
#        224807
#
# Disc length: 3143 seconds
#
# Revision: 0
# Processed by: cddbd v1.5.2PL0 Copyright (c) Steve Scherf et al.
# Submitted via: ExactAudioCopy v0.99pb5
#
DISCID=1e0c4514
DTITLE=Various Artist - True Country Love CD2
DYEAR=1900
DGENRE=Country
TTITLE0=George Jones - Things Have Gone To Pieces
TTITLE1=Charley Pride - Oklahoma Morning
TTITLE2=Frankie Lane - Cool Water
TTITLE3=Faron Young - Hello Walls
TTITLE4=Johnny Cash - Ballad Of A Teenage Queen
TTITLE5=Kenny Rogers - Ruby Don't Take Your Love To Town
TTITLE6=Boxcar Willie - Will The Circle Be Unbroken
TTITLE7=George Jones - A Good Year For Roses
TTITLE8=Hank Locklin - Please Help Me I'm Falling
TTITLE9=Dolly Parton and Willie Nelson - Everthing Is Beautiful
TTITLE10=Conway Twitty - Linda On My Mind
TTITLE11=Willie Nelson - Any Old Arms Won't Do
TTITLE12=Sammi Smith - Help Me Make It Through The Night
TTITLE13=Johnny Paycheck - Who Needs Your Love
TTITLE14=Conway Twitty - It's Only Make Believe
TTITLE15=Hank Locklin - Send Me The Pillow That You Dream On
TTITLE16=Frankie Lane - High Noon (Do Not Forsake Me)
TTITLE17=Anne Murray - Danny's Song
TTITLE18=Jimmie Rodgers - Honeycomb
TTITLE19=George Jones - The Tender Years
EXTD=
EXTT0=
EXTT1=
EXTT2=
EXTT3=
EXTT4=
EXTT5=
EXTT6=
EXTT7=
EXTT8=
EXTT9=
EXTT10=
EXTT11=
EXTT12=
EXTT13=
EXTT14=
EXTT15=
EXTT16=
EXTT17=
EXTT18=
EXTT19=
PLAYORDER=
